<?xml version="1.0" encoding="utf-8"?>
<!-- Generator: Adobe Illustrator 19.0.0, SVG Export Plug-In . SVG Version: 6.00 Build 0)  -->
<svg version="1.1" id="Logo" xmlns="http://www.w3.org/2000/svg" xmlns:xlink="http://www.w3.org/1999/xlink" x="0px" y="0px"
	 viewBox="-334 221 290 120" style="enable-background:new -334 221 290 120;" xml:space="preserve">
<style type="text/css">
	.st0{fill:#C1272D;}
	.st1{fill:none;}
	.st2{fill:#7F0D15;}
	.st3{fill:#FFFFFF;}
</style>
<g id="XMLID_52_">
	<path id="XMLID_174_" class="st0" d="M-187.7,303c-0.6,1.9-1.5,3.6-2.6,5c-1.1,1.4-2.5,2.5-4.1,3.2c-1.6,0.8-3.3,1.1-5.2,1.1
		c-1.5,0-2.7-0.2-3.6-0.7c-1-0.5-2-1.3-3.1-2.6l-1.6,2.6h-4.7v-18.7h7.1v3.4c0,7.6,1.9,11.3,5.7,11.3c1.2,0,2.2-0.4,2.9-1.3
		c0.7-0.9,1-2,1-3.5c0-1.7-0.4-3.4-1.3-5c-0.8-1.7-1.9-3.3-3.1-5.1c-1.3-1.7-2.6-3.5-4.1-5.3c-1.5-1.8-2.9-3.7-4.1-5.7
		c-1.3-2-2.3-4.2-3.1-6.4c-0.8-2.2-1.3-4.7-1.3-7.2c0-2.1,0.3-4,0.9-5.8c0.6-1.8,1.4-3.3,2.4-4.6c1-1.3,2.2-2.3,3.6-3.1
		c1.4-0.8,2.9-1.1,4.5-1.1c1.5,0,2.9,0.3,4.1,0.8c1.2,0.6,2.5,1.5,4,2.9l1.2-3.1h4v16.4h-7.1v-4c0-2.6-0.4-4.6-1.3-6
		c-0.8-1.4-2.1-2.1-3.7-2.1c-1,0-1.7,0.4-2.3,1.1c-0.6,0.8-0.9,1.7-0.9,2.8c0,1.6,0.4,3.2,1.3,4.8c0.8,1.6,1.9,3.2,3.2,4.9
		c1.3,1.7,2.6,3.4,4.1,5.1c1.5,1.8,2.8,3.6,4.1,5.6c1.3,2,2.3,4.1,3.1,6.4c0.8,2.3,1.3,4.7,1.3,7.4C-186.7,299-187,301.1-187.7,303z
		"/>
	<path id="XMLID_176_" class="st0" d="M-164.9,311.6l-0.2-3.4c-1.4,1.6-2.6,2.7-3.7,3.3c-1,0.6-2.3,0.9-3.7,0.9
		c-1,0-1.9-0.2-2.9-0.5s-1.8-0.9-2.6-1.8c-0.8-0.8-1.4-2-1.8-3.4c-0.5-1.4-0.7-3.2-0.7-5.4v-26.6h-2.6v-4.7h12.9v31.4
		c0,1.7,0.1,2.9,0.4,3.5c0.3,0.6,0.8,0.9,1.6,0.9c1.1,0,1.9-0.5,2.4-1.6c0.5-1.1,0.7-2.8,0.7-5.3v-24.3h-2.5v-4.7h12.8v36.8h2.6v4.7
		H-164.9z"/>
	<path id="XMLID_178_" class="st0" d="M-148.8,311.6v-4.7h2.7v-32.1h-2.7v-4.7h13v36.8h2.5v4.7H-148.8z M-136.9,265.8
		c-1.3,1.3-2.8,1.9-4.6,1.9c-0.9,0-1.7-0.2-2.5-0.5s-1.5-0.8-2.1-1.4c-0.6-0.6-1.1-1.3-1.4-2.1c-0.3-0.8-0.5-1.7-0.5-2.6
		c0-0.9,0.2-1.8,0.5-2.6c0.3-0.8,0.8-1.5,1.4-2.1c0.6-0.6,1.3-1.1,2.1-1.4s1.6-0.5,2.5-0.5c1.8,0,3.3,0.6,4.6,1.9
		c1.3,1.3,1.9,2.8,1.9,4.6C-135,263-135.7,264.5-136.9,265.8z"/>
	<path id="XMLID_181_" class="st0" d="M-119.6,312.1c-2.7,0-4.6-0.9-5.8-2.8c-1.2-1.8-1.8-4.8-1.8-8.8v-25.7h-3.3v-4.7h3.3V260h10.3
		v10.1h3.9v4.7h-3.9V303c0,1.5,0.4,2.2,1.3,2.2c0.5,0,1.1-0.5,1.8-1.4l1.6,3.4C-114,310.4-116.4,312.1-119.6,312.1z"/>
	<path id="XMLID_183_" class="st0" d="M-87.1,259.3v35.3c0,11.8-4.1,17.7-12.4,17.7c-1.6,0-3.1-0.3-4.5-0.8
		c-1.3-0.6-2.5-1.3-3.5-2.3c-1-1-1.8-2.1-2.4-3.4c-0.6-1.3-0.8-2.8-0.8-4.4c0-2.3,0.5-4.1,1.4-5.5c1-1.4,2.2-2.1,3.9-2.1
		c1.5,0,2.6,0.5,3.5,1.6c0.8,1.1,1.3,2.6,1.3,4.4c0,1.7-0.4,3.2-1.3,4.4c-0.8,1.2-1.8,1.8-3,1.8h-0.6c0.4,1.1,1.4,1.6,2.9,1.6
		c1,0,1.8-0.3,2.3-0.9c0.6-0.6,1-1.4,1.3-2.4c0.3-1,0.5-2.2,0.5-3.4c0.1-1.3,0.1-2.6,0.1-4v-37.6h-3.3v-5.1h17.3v5.1H-87.1z"/>
	<path id="XMLID_185_" class="st0" d="M-55.1,303c-0.6,1.9-1.5,3.6-2.6,5c-1.1,1.4-2.5,2.5-4.1,3.2c-1.6,0.8-3.3,1.1-5.2,1.1
		c-1.5,0-2.7-0.2-3.6-0.7c-1-0.5-2-1.3-3.1-2.6l-1.6,2.6h-4.7v-18.7h7.1v3.4c0,7.6,1.9,11.3,5.7,11.3c1.2,0,2.2-0.4,2.9-1.3
		c0.7-0.9,1-2,1-3.5c0-1.7-0.4-3.4-1.3-5c-0.8-1.7-1.9-3.3-3.1-5.1c-1.3-1.7-2.6-3.5-4.1-5.3c-1.5-1.8-2.9-3.7-4.1-5.7
		c-1.3-2-2.3-4.2-3.1-6.4c-0.8-2.2-1.3-4.7-1.3-7.2c0-2.1,0.3-4,0.9-5.8c0.6-1.8,1.4-3.3,2.4-4.6s2.2-2.3,3.6-3.1
		c1.4-0.8,2.9-1.1,4.5-1.1c1.5,0,2.9,0.3,4.1,0.8c1.2,0.6,2.5,1.5,4,2.9l1.2-3.1h4v16.4h-7.1v-4c0-2.6-0.4-4.6-1.3-6
		c-0.8-1.4-2.1-2.1-3.7-2.1c-1,0-1.7,0.4-2.3,1.1c-0.6,0.8-0.9,1.7-0.9,2.8c0,1.6,0.4,3.2,1.3,4.8c0.8,1.6,1.9,3.2,3.2,4.9
		c1.3,1.7,2.6,3.4,4.1,5.1c1.5,1.8,2.8,3.6,4.1,5.6c1.3,2,2.3,4.1,3.1,6.4c0.8,2.3,1.3,4.7,1.3,7.4C-54.2,299-54.5,301.1-55.1,303z"
		/>
</g>
<g id="XMLID_31_">
	<circle id="XMLID_50_" class="st1" cx="-275" cy="283.7" r="53.9"/>
	<g id="XMLID_32_">
		<path id="XMLID_49_" class="st2" d="M-231.1,266.2c-0.3-0.8-0.9-1.3-1.8-1.5c-1-0.2-1.9-0.5-2.9-0.7c-5.1-1.2-9.9-3-14.6-5.3
			c-2.3-1.1-4-2.7-5.5-4.8c-4.1-5.9-9.8-9.2-17-9.5c-8.9-0.4-15.8,3.3-20.4,11c-0.7,1.2-1.6,2-2.8,2.6c-4.3,2.2-8.8,3.7-13.4,5.1
			c-2.5,0.8-5.1,1.5-7.7,2.2c-0.8,0.2-1.4,0.7-1.8,1.5c-2.2,5.6-3.4,11.4-3.3,17.5c0,1,0,2,0,3c0,0.5,0.1,1,0.1,1.5
			c1,10.3,4.8,19.3,11.7,26.9c11,12.1,24.8,17.3,41,15.6c11.5-1.3,21.2-6.3,29.1-14.8c3.9-4.2,6.8-9,9-14.2
			c2.7-6.3,3.8-12.9,3.5-19.8C-227.7,276.9-229,271.5-231.1,266.2z"/>
		<path id="XMLID_48_" class="st0" d="M-279.3,311c-2.6-4.2-5.3-8.4-8.1-12.5c-6-8.7-12.2-17.4-19.4-25.2c-0.9-1-0.8-1.7,0.3-2.5
			c0.4-0.3,0.7-0.5,1.1-0.7c0.4-0.3,0.8-0.5,1.2-0.7c1-0.6,1-1.1,0.1-1.8c-0.2-0.1-0.3-0.2-0.5-0.4c-1-0.8-0.9-1.5,0.2-2.1
			c0.4-0.2,0.7-0.3,1.1-0.5c1.1-0.6,2.1-1.2,3.2-1.8c0.2-0.1,0.4-0.3,0.6-0.5c0.1-0.1,0.1-0.3,0.1-0.4c0-0.1-0.2-0.2-0.3-0.2
			c-0.4,0.1-0.8,0.2-1.2,0.3c-4.8,1.8-9.8,3.3-14.8,4.6c-1.4,0.3-2.2,1.1-2.6,2.4c-2,6.2-2.9,12.6-2.3,19.2c0.6,7,2.6,13.6,6.2,19.7
			c4.6,7.9,11,13.9,19.1,18c5.5,2.8,11.4,4.6,17.6,4.8c1.5,0.1,1.9-0.2,1.8-1.7c-0.1-2.5,0.3-5,0.9-7.4c0.3-1,0.2-1.9-0.3-2.9
			C-276.6,315.9-277.8,313.4-279.3,311z"/>
		<path id="XMLID_44_" class="st0" d="M-231.2,268.4c-0.5-1.5-1.3-2.4-2.9-2.7c-4.3-0.9-8.5-2.3-12.6-3.9c-0.4-0.2-0.9-0.1-1.4-0.2
			c0.3,0.4,0.6,0.9,1,1.1c1.5,0.9,3,1.7,4.5,2.5c0.3,0.2,0.6,0.3,0.9,0.5c0.5,0.4,0.5,0.8,0.1,1.2c-0.3,0.3-0.8,0.5-1.2,0.8
			c-1.1,0.7-1.1,1.3,0,2c0.8,0.5,1.5,0.9,2.3,1.4c1.2,0.8,1.3,1.4,0.4,2.5c-0.6,0.7-1.2,1.4-1.7,2.2c-8.4,11.1-16.4,22.4-24,34
			c-2.4,3.6-4.4,7.3-6.2,11.2c-1.1,2.5-2.1,5-2,7.9c0,1.3,0.3,1.7,1.6,1.6c6.5-0.4,12.7-2,18.5-4.9c6.1-3,11-7.3,15.4-12.4
			c2-2.3,3.8-4.8,5.1-7.5c3.2-6.7,5.1-13.4,5.1-19C-228.4,279.1-229.3,274.1-231.2,268.4z M-270.2,326.7c-1.1,0-2-0.9-2-2
			c0-1,1-2,2-2.1c1.1,0,2,0.9,2,2C-268.1,325.9-269,326.7-270.2,326.7z M-237.9,310c0,0.2-0.1,0.4-0.4,0.3s-0.3-0.9-0.3-1.5
			c0-0.7,0-0.8-0.1-1.2c-0.1-0.7-0.5-1.1-1.1-1.1c-0.4,0-0.7,0-1.1,0c-5.1,0-10.2,0-15.4,0c-1.8,0-1.9,0.2-2.1,2
			c0,0.5-0.2,1.3-0.2,1.4c0,0.1-0.1,0.3-0.2,0.3c-0.2,0-0.3-0.2-0.3-0.3c-0.1-1.2-0.2-2.3-0.2-3.5c0-0.3,0.4-0.7,0.6-0.9
			c1.6-1.3,3.1-2.6,4.7-3.9c1.6-1.4,3.1-2.8,4.6-4.2c1.1-1,1.8-1,2.9,0c0.2,0.2,0.5,0.5,0.7,0.7c0.6,0.5,1.2,0.4,1.8,0.2
			c1.1-0.4,1.5-0.3,2,0.8c0.7,1.4,1.4,2.9,2.1,4.3c0.4,0.7,1,1.3,1.4,2c0.2,0.3,0.6,0.6,0.6,0.9C-237.7,307.5-237.9,309.8-237.9,310
			z"/>
		<path id="XMLID_43_" class="st0" d="M-271.6,314.7c-0.2,0.7-0.4,1.5-0.5,2.2c0.1,0,0.1,0.1,0.2,0.1c0.2-0.2,0.4-0.3,0.5-0.5
			c0.3-0.5,0.6-1,0.9-1.5c2.9-5.3,5.9-10.5,9.2-15.5c5.9-8.9,12.5-17.2,19.2-25.5c1.2-1.5,1.2-1.8-0.5-2.8c-0.6-0.4-1.2-0.7-1.8-1
			c-0.2-0.1-0.5-0.3-0.7-0.4c-0.8-0.6-0.8-1.1-0.2-1.8c0.3-0.3,0.7-0.6,1-0.9c0.5-0.5,0.4-0.9-0.1-1.3c-0.2-0.1-0.4-0.2-0.6-0.4
			c-2.4-1.2-4.7-2.7-6.7-4.5c-0.4-0.3-0.8-0.7-1.2-1c-0.7-0.6-1.1-0.5-1.4,0.5c-0.1,0.2-0.1,0.5-0.2,0.7c-0.6,2.6-1.2,5.2-1.9,7.8
			c-2.6,9.3-6,18.4-9.2,27.6C-267.6,302.5-269.6,308.6-271.6,314.7z"/>
		<path id="XMLID_42_" class="st0" d="M-284.3,266.4c2,2.8,4.4,5.1,7.3,7c2.4,1.6,4.8,1.6,7.2,0c1.6-1.1,3.1-2.4,4.5-3.7
			c2.6-2.7,4.5-5.8,5.5-9.4c0.3-0.9,0.1-1.7-0.6-2.4c-3.5-3.6-7.7-5.5-12.5-5.6c-5.8,0-10.2,2.3-13.8,6.4c-0.9,1-1,2-0.4,3.2
			C-286.3,263.3-285.4,264.9-284.3,266.4z"/>
		<path id="XMLID_41_" class="st0" d="M-277.1,307.1c-2.6-6.9-5.4-13.7-8-20.5c-3.2-8.5-6.1-17.1-7.8-26c-0.2-1.1-0.6-1.2-1.5-0.5
			c-1.1,0.9-2.1,1.8-3.3,2.6c-1.5,1-3.1,1.8-4.7,2.7c-0.9,0.5-1,0.9-0.2,1.6c0.1,0.1,0.2,0.2,0.3,0.3c1.1,1,1.1,1.8-0.3,2.5
			c-0.8,0.5-1.7,0.9-2.5,1.5c-0.9,0.6-0.9,1.1-0.3,1.8c0.4,0.4,0.8,0.9,1.1,1.3c2.9,3.5,5.8,7,8.8,10.5c4.5,5.3,8.6,10.8,12.3,16.7
			c2.7,4.3,5.2,8.8,7.5,13.3c0.3,0.5,0.6,1,0.9,1.4c0.1,0,0.2-0.1,0.3-0.1c-0.1-0.5-0.1-0.9-0.3-1.4
			C-275.4,312.2-276.2,309.6-277.1,307.1z"/>
		<path id="XMLID_40_" class="st0" d="M-273.3,313c0.3,0,0.6-0.8,0.7-1.2c1.1-3.4,2.1-6.8,3.2-10.3c0.2-0.7,0.3-1.4,0.4-2
			c-0.4-3.2-0.7-6.2-1.1-9.2c-0.1-1-0.3-2-0.5-2.9c-0.2-0.9-0.7-1.2-1.6-1.1c-0.4,0-0.8,0.2-1.1,0.1c-1.6-0.2-2,0.8-2.5,2.1
			c-1,2.4-1.6,5-1.8,7.5c-0.2,1.8-0.7,3.6,0,5.5c1.3,3.4,2.3,6.8,3.5,10.3C-274,312.3-273.9,313.1-273.3,313z"/>
		<path id="XMLID_39_" class="st0" d="M-272.5,276.9c-0.8-0.7-1.4-0.7-2.2,0c-1,0.9-2,1.8-3,2.8c-0.5,0.5-0.4,1,0.1,1.6
			c0.8,1,1.6,2,2.3,3c0.5,0.8,1.2,1.2,2.2,1.1c1,0.1,1.8-0.3,2.3-1.2c0.5-0.9,0.9-1.9,1.2-2.9c0.2-0.6,0.2-1.3-0.3-1.8
			C-270.7,278.5-271.6,277.6-272.5,276.9z"/>
		<path id="XMLID_38_" class="st2" d="M-224.7,263.4c-0.1-0.4-0.3-0.8-0.4-1.2c-3-7.7-7.6-14.2-13.8-19.7c-8.6-7.6-22.2-13-30-13.4
			s-18.8-0.5-28.8,4.8c-10,5.3-15.6,10.1-21.1,17.9c-2.4,3.4-4.3,7-5.7,10.8c-0.1,0.3-0.3,0.9-0.3,1.1c0.1,0.1,0.1,0.1,0.2,0.1
			c0.1-0.1,1-2.1,1.6-3.1c3.2-6.2,7.3-11.6,12.4-16.2c9.1-8.1,19.9-13,31.9-13.6s20.2,1.3,29.3,6.2c8.5,4.6,15.3,11,20.3,19.1
			c1.4,2.2,3.6,6.4,3.7,6.8c0.2,0.4,0.3,0.8,0.5,0.8C-224.6,263.9-224.6,263.8-224.7,263.4z"/>
		<path id="XMLID_37_" class="st3" d="M-273.5,245.5c-0.9,0.1-1.8,0.1-2.7,0.2c-5.1,0.7-9.4,3.2-12.8,7c-1.6,1.8-2.6,3.7-2.1,6.2
			c0.2,0.8,0.2,1.6,0.4,2.3c1.5,6.8,3.8,13.4,6.1,20c0.1,0.3,0.3,0.6,0.4,0.9c0.8,1.2,1.8,1.3,2.7,0.2c1.8-2,3.5-3.9,5.3-5.8
			c0.7-0.8,0.7-1.2-0.3-1.7c-3.7-2-6.5-4.9-9-8.2c-1.9-2.5-3.3-5.3-3.9-8.5c-0.3-1.6-0.1-3,0.9-4.3c1-1.2,2-2.4,3.1-3.3
			c3-2.4,6.4-3.5,10.2-3.8c5-0.3,9.6,0.8,13.5,4.2c2.7,2.3,4.2,5.1,3,8.8c-0.1,0.4-0.2,0.7-0.3,1.1c-2.2,6.1-6.1,10.8-11.7,14.1
			c-1,0.6-1.1,0.9-0.2,1.8c1.2,1.2,2.4,2.5,3.5,3.7c0.6,0.7,1.2,1.4,1.8,2.1c0.9,1,1.9,0.9,2.6-0.3c0.2-0.3,0.3-0.7,0.4-1
			c1.6-4.8,3.3-9.6,4.7-14.5c0.8-2.6,1.4-5.3,2-8c0.4-1.6-0.1-3-1-4.3C-261,248.7-266.5,245.7-273.5,245.5z"/>
		<path id="XMLID_36_" class="st3" d="M-278.4,282.8c-0.8-0.8-1.3-0.8-2.2,0.1c-0.5,0.5-1,1-1.6,1.3c-1.1,0.6-1.3,0.7-0.8,1.8
			c1,2.9,2,5.8,3.1,8.8c0.1,0.3,0.3,0.7,0.5,1c0.3,0.4,0.6,0.4,0.8-0.1c0.2-0.4,0.3-0.8,0.3-1.2c0.4-2.6,1.1-5.1,2.2-7.4
			c0.1-0.2,0.2-0.6,0.3-0.8c0-0.3-0.2-0.7-0.4-1C-276.9,284.5-277.6,283.6-278.4,282.8z"/>
		<path id="XMLID_35_" class="st3" d="M-264.7,284.6c-1-0.3-1.7-1-2.3-1.8c-0.3-0.4-0.6-0.7-0.9-1.1c-0.4-0.4-0.9-0.4-1.1,0.1
			c-0.6,1.2-1.5,3.4-1.6,3.6s0.2,0.4,0.4,1.1s1.4,4.7,2.1,7c0.1,0.3,0.3,0.9,0.6,0.9s0.7-0.8,0.7-0.8s0.3-0.7,0.4-1.1
			c0.7-1.9,1.3-3.9,2-5.8c0.1-0.4,0.2-0.7,0.3-1.1C-264,285.2-264.1,284.8-264.7,284.6z"/>
		<path id="XMLID_34_" class="st3" d="M-240.2,304c-0.6-1.4-1.3-2.8-2-4.1c-0.5-0.9-1.1-1-2-0.5c-1.1,0.6-2.3,1.2-3.4,1.9
			c-1.7,0.9-3.3,1.8-5,2.8c-0.2,0.1-0.5,0.4-0.5,0.7c0,0.3,0.5,0.4,0.8,0.4c0.3,0,0.8,0,1,0c1.7,0,3.3,0,5.3,0c0,0,0,0,0,0
			c2,0,3.4,0,5.2,0C-239.9,305.2-239.8,304.8-240.2,304z"/>
		<path id="XMLID_33_" class="st3" d="M-251.9,302.4c1.6-0.8,3.2-1.6,4.8-2.5c0.3-0.1,1.1-0.5,0.7-0.8c-0.3-0.3-0.6-0.8-1-1
			c-0.4-0.3-0.9-0.2-1.3,0.2c-1.3,1.1-2.5,2.3-3.7,3.5c-0.2,0.2-0.4,0.5-0.3,0.7S-252.1,302.5-251.9,302.4z"/>
	</g>
</g>
</svg>
